<?xml version="1.0" encoding="UTF-8" standalone="no"?>
<!-- Created with Inkscape (http://www.inkscape.org/) -->

<svg
   width="195.91373mm"
   height="187.20914mm"
   viewBox="0 0 195.91373 187.20914"
   version="1.1"
   id="svg1"
   xml:space="preserve"
   sodipodi:docname="Fun Raiser CM Vector.svg"
   inkscape:version="1.4.2 (ebf0e940, 2025-05-08)"
   xmlns:inkscape="http://www.inkscape.org/namespaces/inkscape"
   xmlns:sodipodi="http://sodipodi.sourceforge.net/DTD/sodipodi-0.dtd"
   xmlns="http://www.w3.org/2000/svg"
   xmlns:svg="http://www.w3.org/2000/svg"><sodipodi:namedview
     id="namedview1"
     pagecolor="#505050"
     bordercolor="#eeeeee"
     borderopacity="1"
     inkscape:showpageshadow="0"
     inkscape:pageopacity="0"
     inkscape:pagecheckerboard="0"
     inkscape:deskcolor="#505050"
     inkscape:document-units="mm"
     inkscape:zoom="0.58457335"
     inkscape:cx="245.47818"
     inkscape:cy="280.54649"
     inkscape:window-width="1512"
     inkscape:window-height="857"
     inkscape:window-x="0"
     inkscape:window-y="38"
     inkscape:window-maximized="1"
     inkscape:current-layer="svg1"
     showguides="true" /><defs
     id="defs1" /><g
     inkscape:label="Layer 1"
     inkscape:groupmode="layer"
     id="layer1"
     transform="translate(-11.794248,-47.686422)"><path
       style="fill:#000000;fill-opacity:1;stroke-width:15"
       d="m 11.794248,87.013581 88.011815,-0.960131 -65.56145,141.81724 -7.408338,0.0833 z"
       id="path2-0"
       sodipodi:nodetypes="ccccc" /><path
       style="fill:#000000;fill-opacity:1;stroke-width:15"
       d="M 16.594895,81.252803 87.964507,81.892891 88.604592,71.011425 50.19942,52.448925 16.594895,71.331468 Z"
       id="path3-4"
       sodipodi:nodetypes="cccccc" /><path
       style="fill:#948ca1;fill-opacity:1;stroke-width:15"
       d="M 19.202586,82.780245 107.21444,81.820114 99.853447,227.75977 34.244613,227.87069 Z"
       id="path2"
       sodipodi:nodetypes="ccccc" /><g
       id="g6"
       style="fill:#000000;fill-opacity:1"
       transform="translate(0,0.52916663)"><path
         style="fill:#000000;fill-opacity:1;stroke-width:15"
         d="m 31.376938,94.079957 h 16.75316 V 111.73144 H 31.549674 Z"
         id="path6-4"
         sodipodi:nodetypes="ccccc" /><path
         style="fill:#000000;fill-opacity:1;stroke-width:14.3408"
         d="M 56.247775,94.079957 H 71.560741 V 111.73144 H 56.405662 Z"
         id="path6-8-0"
         sodipodi:nodetypes="ccccc" /><path
         style="fill:#000000;fill-opacity:1;stroke-width:14.2656"
         d="M 78.041815,94.079957 H 93.194754 V 111.73144 H 78.198051 Z"
         id="path6-8-7-4"
         sodipodi:nodetypes="ccccc" /><path
         style="fill:#000000;fill-opacity:1;stroke-width:14.3408"
         d="m 33.937283,124.24246 h 15.312966 v 17.65149 h -15.15508 z"
         id="path6-2-3"
         sodipodi:nodetypes="ccccc" /><path
         style="fill:#000000;fill-opacity:1;stroke-width:15"
         d="m 56.247775,124.24246 h 16.75316 v 17.65149 H 56.420511 Z"
         id="path6-8-5-1"
         sodipodi:nodetypes="ccccc" /><path
         style="fill:#000000;fill-opacity:1;stroke-width:13.6497"
         d="m 78.041815,124.24246 h 13.872767 v 17.65149 h -13.72973 z"
         id="path6-8-7-2-7"
         sodipodi:nodetypes="ccccc" /><path
         style="fill:#000000;fill-opacity:1;stroke-width:13.3878"
         d="m 36.902524,152.8793 h 14.249822 v 16.53134 H 37.049449 Z"
         id="path6-2-4-9"
         sodipodi:nodetypes="ccccc" /><path
         style="fill:#000000;fill-opacity:1;stroke-width:13.3125"
         d="M 57.474709,152.8793 H 71.56451 v 16.53134 H 57.619984 Z"
         id="path6-8-5-6-4"
         sodipodi:nodetypes="ccccc" /><path
         style="fill:#000000;fill-opacity:1;stroke-width:13.2367"
         d="m 77.184699,152.8793 h 13.929775 v 16.53134 H 77.328323 Z"
         id="path6-8-7-2-4-7"
         sodipodi:nodetypes="ccccc" /><path
         style="fill:#000000;fill-opacity:1;stroke-width:12.7516"
         d="M 38.493384,177.17187 H 51.80751 v 16.05127 H 38.630661 Z"
         id="path6-2-4-3-0"
         sodipodi:nodetypes="ccccc" /><path
         style="fill:#000000;fill-opacity:1;stroke-width:13.0545"
         d="m 57.269011,177.17187 h 13.954211 v 16.05127 H 57.412888 Z"
         id="path6-8-5-6-0-1"
         sodipodi:nodetypes="ccccc" /><path
         style="fill:#000000;fill-opacity:1;stroke-width:12.7516"
         d="m 76.840224,177.17187 h 13.314121 v 16.05127 H 76.977501 Z"
         id="path6-8-7-2-4-4-1"
         sodipodi:nodetypes="ccccc" /><path
         style="fill:#000000;fill-opacity:1;stroke-width:12.0657"
         d="m 40.658188,199.46391 h 11.970315 v 15.98422 H 40.78161 Z"
         id="path6-2-4-3-1-5"
         sodipodi:nodetypes="ccccc" /><path
         style="fill:#000000;fill-opacity:1;stroke-width:13.2936"
         d="m 57.099039,199.46391 h 14.530659 v 15.98422 H 57.24886 Z"
         id="path6-8-5-6-0-8-2"
         sodipodi:nodetypes="ccccc" /><path
         style="fill:#000000;fill-opacity:1;stroke-width:12.3841"
         d="m 76.423798,199.46391 h 12.610396 v 15.98422 H 76.553819 Z"
         id="path6-8-7-2-4-4-7-2"
         sodipodi:nodetypes="ccccc" /></g><path
       style="fill:#948ca1;fill-opacity:1;stroke-width:15"
       d="M 24.003233,76.4903 95.372845,77.130388 96.01293,66.248922 57.607758,47.686422 24.003233,66.568965 Z"
       id="path3"
       sodipodi:nodetypes="cccccc" /><path
       style="fill:#dad2e6;fill-opacity:1;stroke-width:15"
       d="m 34.022773,92.492456 h 16.75316 V 110.14393 H 34.195509 Z"
       id="path6"
       sodipodi:nodetypes="ccccc" /><path
       style="fill:#dad2e6;fill-opacity:1;stroke-width:14.3408"
       d="M 58.89361,92.492456 H 74.206576 V 110.14393 H 59.051497 Z"
       id="path6-8"
       sodipodi:nodetypes="ccccc" /><path
       style="fill:#dad2e6;fill-opacity:1;stroke-width:14.2656"
       d="M 80.68765,92.492456 H 95.840589 V 110.14393 H 80.843886 Z"
       id="path6-8-7"
       sodipodi:nodetypes="ccccc" /><path
       style="fill:#dad2e6;fill-opacity:1;stroke-width:14.3408"
       d="m 36.583118,122.65495 h 15.312966 v 17.65149 h -15.15508 z"
       id="path6-2"
       sodipodi:nodetypes="ccccc" /><path
       style="fill:#dad2e6;fill-opacity:1;stroke-width:15"
       d="m 58.89361,122.65495 h 16.75316 v 17.65149 H 59.066346 Z"
       id="path6-8-5"
       sodipodi:nodetypes="ccccc" /><path
       style="fill:#dad2e6;fill-opacity:1;stroke-width:13.6497"
       d="m 80.68765,122.65495 h 13.872767 v 17.65149 h -13.72973 z"
       id="path6-8-7-2"
       sodipodi:nodetypes="ccccc" /><path
       style="fill:#dad2e6;fill-opacity:1;stroke-width:13.3878"
       d="m 39.548359,151.29179 h 14.249822 v 16.53134 H 39.695284 Z"
       id="path6-2-4"
       sodipodi:nodetypes="ccccc" /><path
       style="fill:#dad2e6;fill-opacity:1;stroke-width:13.3125"
       d="m 60.120544,151.29179 h 14.089801 v 16.53134 H 60.265819 Z"
       id="path6-8-5-6"
       sodipodi:nodetypes="ccccc" /><path
       style="fill:#dad2e6;fill-opacity:1;stroke-width:13.2367"
       d="m 79.830534,151.29179 h 13.929775 v 16.53134 H 79.974158 Z"
       id="path6-8-7-2-4"
       sodipodi:nodetypes="ccccc" /><path
       style="fill:#dad2e6;fill-opacity:1;stroke-width:12.7516"
       d="m 41.139219,175.58436 h 13.314126 v 16.05127 H 41.276496 Z"
       id="path6-2-4-3"
       sodipodi:nodetypes="ccccc" /><path
       style="fill:#dad2e6;fill-opacity:1;stroke-width:13.0545"
       d="m 59.914846,175.58436 h 13.954211 v 16.05127 H 60.058723 Z"
       id="path6-8-5-6-0"
       sodipodi:nodetypes="ccccc" /><path
       style="fill:#dad2e6;fill-opacity:1;stroke-width:12.7516"
       d="M 79.486059,175.58436 H 92.80018 v 16.05127 H 79.623336 Z"
       id="path6-8-7-2-4-4"
       sodipodi:nodetypes="ccccc" /><path
       style="fill:#dad2e6;fill-opacity:1;stroke-width:12.0657"
       d="m 43.304023,197.8764 h 11.970315 v 15.98422 H 43.427445 Z"
       id="path6-2-4-3-1"
       sodipodi:nodetypes="ccccc" /><path
       style="fill:#000000;fill-opacity:1;stroke-width:15"
       d="m 129.78572,175.04664 c -9.7314,-4.45174 -40.786608,-4.15202 -56.891595,5.25745 12.017917,-17.9762 27.570605,-24.41383 52.366685,-24.52214 -11.27987,-10.83059 -29.883421,-14.06535 -51.834636,-11.47938 17.81305,-12.63385 44.894416,-14.35219 64.607516,5.51977 1.54836,-5.45388 0.92157,-14.12486 -0.74755,-19.66088 9.15757,5.49131 12.14928,17.41921 9.68131,26.96363 16.72703,-10.96705 43.11358,-7.95375 56.89569,7.92439 -14.70342,-3.51882 -32.55705,-2.71381 -45.21079,2.57644 20.47421,8.51259 30.53083,39.45175 6.23751,67.26964 2.64497,-14.48103 1.13031,-32.03428 -6.88093,-46.40625 1.3242,17.02562 -1.54824,31.39946 -10.72144,41.92565 1.74012,-14.9366 2.5982,-29.92834 -2.40033,-45.28611 -2.64731,10.18534 -7.80116,18.18814 -16.66969,26.00586 3.90712,-10.40321 6.33577,-24.05363 6.54694,-33.25926 z"
       id="path5-3-1"
       sodipodi:nodetypes="cccccccccccccccc"
       clip-path="none" /><path
       style="fill:#dad2e6;fill-opacity:1;stroke-width:13.2936"
       d="m 59.744874,197.8764 h 14.530659 v 15.98422 H 59.894695 Z"
       id="path6-8-5-6-0-8"
       sodipodi:nodetypes="ccccc" /><path
       style="fill:#dad2e6;fill-opacity:1;stroke-width:12.3841"
       d="m 79.069633,197.8764 h 12.610396 v 15.98422 H 79.199654 Z"
       id="path6-8-7-2-4-4-7"
       sodipodi:nodetypes="ccccc" /><path
       style="fill:#000000;fill-opacity:1;stroke-width:15"
       d="m 104.0868,227.75977 -23.364558,0.0395 C 91.146451,198.3437 110.33547,178.49774 137.07419,170.6337 l 7.09498,0.90996 0.14675,6.10548 c -28.56372,9.6732 -39.42284,29.24012 -40.22913,50.11063 z"
       id="path4-9"
       sodipodi:nodetypes="ccccccc" /><path
       style="fill:#97c453;fill-opacity:1;stroke-width:15"
       d="m 132.84083,170.63369 c -18.55728,-6.60163 -44.520633,-3.58626 -65.151713,5.71006 10.887031,-18.60447 26.800519,-28.12307 65.039743,-22.37224 -14.39858,-13.42518 -39.934854,-18.39891 -62.479398,-16.67302 17.056611,-9.58613 55.033838,-8.69128 72.649778,9.92134 1.54836,-5.45388 0.86901,-13.66657 -0.80011,-19.20259 9.15757,5.49131 12.06927,15.25892 9.6013,24.80334 16.72703,-10.96705 40.07553,-8.59951 56.00754,5.9208 -14.70342,-2.04784 -35.06817,-2.41319 -48.96659,4.80065 20.47421,8.51259 34.85474,41.9515 10.56142,69.76939 2.64497,-14.48103 1.13031,-32.03428 -6.88093,-46.40625 1.3242,17.02562 -1.54824,31.39946 -10.72144,41.92565 1.74012,-14.9366 2.5982,-29.92834 -2.40033,-45.28611 -2.64731,10.18534 -8.25377,19.54597 -17.1223,27.36369 3.90712,-10.40321 7.6936,-24.05363 7.90477,-33.25926 z"
       id="path5-3"
       sodipodi:nodetypes="cccccccccccccccc"
       clip-path="none" /><path
       style="fill:#782a06;fill-opacity:1;stroke-width:15"
       d="m 99.853444,227.75977 -23.364538,0.0395 C 86.913115,198.3437 106.10211,178.49774 132.84083,170.6337 l 7.56883,3.15925 -0.3271,3.85619 c -28.56372,9.6732 -39.42284,29.24012 -40.229126,50.11063 z"
       id="path4"
       sodipodi:nodetypes="ccccccc" /></g></svg>
