<?xml version="1.0" encoding="UTF-8" standalone="no"?>
<!-- Created with Inkscape (http://www.inkscape.org/) -->

<svg
   width="326.49582mm"
   height="315.91251mm"
   viewBox="0 0 326.49582 315.91251"
   version="1.1"
   id="svg1"
   xml:space="preserve"
   inkscape:version="1.4.2 (ebf0e940, 2025-05-08)"
   sodipodi:docname="Soiree CM Vector.svg"
   xmlns:inkscape="http://www.inkscape.org/namespaces/inkscape"
   xmlns:sodipodi="http://sodipodi.sourceforge.net/DTD/sodipodi-0.dtd"
   xmlns="http://www.w3.org/2000/svg"
   xmlns:svg="http://www.w3.org/2000/svg"><sodipodi:namedview
     id="namedview1"
     pagecolor="#505050"
     bordercolor="#eeeeee"
     borderopacity="1"
     inkscape:showpageshadow="0"
     inkscape:pageopacity="0"
     inkscape:pagecheckerboard="0"
     inkscape:deskcolor="#505050"
     inkscape:document-units="mm"
     inkscape:zoom="0.58457335"
     inkscape:cx="765.51557"
     inkscape:cy="732.15791"
     inkscape:window-width="1512"
     inkscape:window-height="857"
     inkscape:window-x="0"
     inkscape:window-y="38"
     inkscape:window-maximized="1"
     inkscape:current-layer="layer1" /><defs
     id="defs1" /><g
     inkscape:label="Layer 1"
     inkscape:groupmode="layer"
     id="layer1"
     transform="translate(43.702835,14.042436)"><path
       style="fill:#fff952;fill-opacity:1;stroke:#e6df30;stroke-width:8;stroke-dasharray:none;stroke-opacity:1"
       d="M 278.52566,160.4038 C 274.34875,59.746202 129.16039,45.878371 88.602932,134.29674 42.822682,234.10118 125.3049,315.94201 209.0214,287.94569 79.599915,247.78145 176.43755,81.342545 278.52566,160.4038 Z"
       id="path4"
       sodipodi:nodetypes="cscc" /><path
       style="fill:#ffffff;fill-opacity:1;stroke:none;stroke-width:0;stroke-dasharray:none"
       d="M -32.181283,-14.362479 C -3.1783416,26.122858 117.83706,34.594068 173.92647,2.9198484 179.446,112.49693 122.66377,213.03073 34.707723,251.59333 -47.846811,202.20963 -54.620002,84.908067 -32.181283,-14.362479 Z"
       id="path1"
       sodipodi:nodetypes="cccc" /><path
       style="fill:#373737;fill-opacity:1;stroke:none;stroke-width:0;stroke-dasharray:none"
       d="M 124.30377,137.38189 C 146.14875,92.414672 103.58479,54.543277 71.370207,94.019348 94.831598,96.448086 112.74893,110.22931 124.30377,137.38189 Z"
       id="path2"
       sodipodi:nodetypes="ccc" /><path
       style="fill:#373737;fill-opacity:1;stroke:none;stroke-width:0;stroke-dasharray:none"
       d="M -17.57254,121.58338 C -27.905264,72.67029 22.548071,46.205325 44.269913,92.295447 20.916845,88.983481 0.20056257,98.027179 -17.57254,121.58338 Z"
       id="path2-1"
       sodipodi:nodetypes="ccc" /><path
       style="fill:#373737;fill-opacity:1;stroke:none;stroke-width:0;stroke-dasharray:none"
       d="M -7.2179222,190.46511 C 29.643446,163.44912 62.457522,157.14592 89.115052,200.70648 98.533056,100.59621 8.799041,114.77481 -7.2179222,190.46511 Z"
       id="path3"
       sodipodi:nodetypes="ccc" /></g></svg>
