<?xml version="1.0" encoding="utf-8"?>
<!-- Generator: Adobe Illustrator 27.1.1, SVG Export Plug-In . SVG Version: 6.00 Build 0)  -->
<svg version="1.1" id="Layer_2" xmlns="http://www.w3.org/2000/svg" xmlns:xlink="http://www.w3.org/1999/xlink" x="0px" y="0px"
	 viewBox="0 0 623 833.7" style="enable-background:new 0 0 623 833.7;" xml:space="preserve">
<style type="text/css">
	.st0{fill:#F1585E;}
	.st1{fill:#4CA5DC;}
</style>
<path class="st0" d="M385.6,244.3L385.6,244.3l-0.1,0C385.8,244.3,385.7,244.3,385.6,244.3z"/>
<path class="st1" d="M119.8,108.5C86.8,119,47,184,57.3,244.7s37,120,78.7,150s189,144.7,223,185.7l13-8.8c0,0-68.3-100-128.7-150.5
	c-57.3-48-121.6-147.9-131-187C100,183,119.8,108.5,119.8,108.5z"/>
<path class="st0" d="M44,242.3C43.7,271,79,378,137,416.7s195.3,152,212.7,172.7c-11.7,7.7-7.3,7.7-11.3,10.7
	c-10-13.3-16.3-22-32.7-31.3c-16.3-9.3-196.3-102.7-236-144S28,273.3,44,242.3z"/>
<path class="st0" d="M411.7,84c-21.3-43-57.7-58.3-86.3-64.3c-23.7-5-62.8-4.3-90.6,2c-40,6.6-79.9,37.1-91.7,61.3
	c-8.9,18.1-28.7,76.3-14.7,143.7c14,67.3,89,149.7,131.7,185.7s105,130,119.3,156.3l25.1-9.3c0,0.1,0,0.1,0,0.1s21.8-3.2,36.5-3.8
	c-11.7-47.7-12.7-99.3-14-138.3s15.3-143,18-174S433,127,411.7,84z M401.5,539.4c-3.2,0.9-98.8-243.3-107.8-265.6
	c-20.2-49.6-39.9-101.9-46.4-155.4c-1.3-10.7-10.2-78.9,14.2-66c36.6,75.8,53.4,158.2,71.8,239.8C338.8,316.6,408,537.6,401.5,539.4
	z"/>
<path class="st1" d="M406,49c39.7,3.3,81.7,21,104.3,59.3c22.7,38.3,40.3,121.3,35.3,158.3S533.5,329,511,374.5
	c-20.6,41.6-46.7,132.8-46,180.5h-15c0,0-12-70-6.7-142.3c5.3-72.3,23-165.3,20.3-210C461,158,429.7,63,406,49z"/>
<path class="st0" d="M528.7,122.3c22.3,14,58.7,81.7,58.3,139S566.3,353,537.3,409c-25,48.4-43,83-55.7,147l-11-0.7
	c2-14,9.3-66.3,20.3-93c9.2-22.4,28.4-77.8,46-109.3c17.7-31.7,27.7-101.7,24-123.3S540,145.3,528.7,122.3z"/>
<polygon class="st0" points="343.9,605.3 352.5,597.2 378.1,643.1 372.1,646.6 "/>
<polygon class="st0" points="472.6,562.7 485.3,562.3 491.3,611.3 483.6,612.5 "/>
<path class="st1" d="M358.4,595.7C379.1,571,435.3,557,469.7,565c-4.1,8.1-27.5,21.5-49.3,28C384.8,603.5,358.4,595.7,358.4,595.7z"
	/>
<path class="st1" d="M533,743.1c0,0-15.5,22.2-42.7,29.3c-48.6,12.7-64.8,6.9-64.8,6.9s24.7-15.9,52.4-22.9
	C505.6,749.3,533,743.1,533,743.1z"/>
<path class="st0" d="M518.7,613.9c-115.3,4.5-164.8,50.4-164.8,50.4s7.4,60.9,59.4,113.2c38.9-34.7,119.7-41.9,119.7-41.9
	S541.4,656,518.7,613.9z M496.4,718.7l-32.8-6.2l-22.1,24.2l-6.1-33.8l-30.2-15.5l29-14.8l3.4-33.7l24,24.7l32.3-5.4l-14.2,30
	L496.4,718.7z"/>
</svg>
